<?xml version="1.0" encoding="UTF-8"?>
<svg id="Layer_1" xmlns="http://www.w3.org/2000/svg" version="1.1" viewBox="0 0 24 24">
  <!-- Generator: Adobe Illustrator 29.5.1, SVG Export Plug-In . SVG Version: 2.1.0 Build 141)  -->
  <defs>
    <style>
      .st0 {
        fill: none;
        stroke: #f7f2ec;
        stroke-linecap: round;
        stroke-linejoin: round;
        stroke-width: 2px;
      }
    </style>
  </defs>
  <path class="st0" d="M12,21V7"/>
  <path class="st0" d="M16,12l2,2,4-4"/>
  <path class="st0" d="M22,6v-2c0-.6-.4-1-1-1h-5c-2.2,0-4,1.8-4,4,0-2.2-1.8-4-4-4H3c-.6,0-1,.4-1,1v13c0,.6.4,1,1,1h6c1.7,0,3,1.3,3,3,0-1.7,1.3-3,3-3h6c.6,0,1-.4,1-1v-1.3"/>
</svg>