<?xml version="1.0" encoding="UTF-8"?>
<svg id="Layer_1" xmlns="http://www.w3.org/2000/svg" version="1.1" viewBox="0 0 24 24">
  <!-- Generator: Adobe Illustrator 29.5.1, SVG Export Plug-In . SVG Version: 2.1.0 Build 141)  -->
  <defs>
    <style>
      .st0 {
        fill: none;
        stroke: #151515;
        stroke-linecap: round;
        stroke-linejoin: round;
        stroke-width: 2px;
      }
    </style>
  </defs>
  <path class="st0" d="M22,7.7c0-.6-.4-1.2-.8-1.5l-6.3-3.9c-.5-.3-1.2-.3-1.7,0L2.9,8.3c-.5.2-.9.8-.9,1.4v6.6c0,.5.4,1.2.8,1.5l6.3,3.9c.5.3,1.2.3,1.7,0l10.3-6c.5-.3.9-1,.9-1.5v-6.5Z"/>
  <path class="st0" d="M10,21.9v-7.9l-7.9-4.9"/>
  <path class="st0" d="M10,14l11.9-6.9"/>
  <path class="st0" d="M14,19.8v-8.1"/>
  <path class="st0" d="M18,17.5v-8.1"/>
</svg>