<?xml version="1.0" encoding="UTF-8"?>
<svg id="Layer_1" data-name="Layer 1" xmlns="http://www.w3.org/2000/svg" viewBox="0 0 1080 214">
  <defs>
    <style>
      .cls-1 {
        fill: #8a6fdc;
      }
    </style>
  </defs>
  <g>
    <g>
      <path class="cls-1" d="M289.38,66.73c0,10.58-2.36,18.56-7.08,23.94-4.72,5.38-12.33,8.94-22.82,10.69v2.1c4.11.52,7.89,1.44,11.35,2.75,3.45,1.31,6.54,3.15,9.25,5.51,2.62,2.27,4.85,5.03,6.69,8.26,1.84,3.24,3.15,6.65,3.93,10.23.87,3.94,1.31,8.31,1.31,13.12,0,5.07-.55,9.79-1.64,14.17-1.09,4.37-2.73,8.26-4.92,11.67-2.36,3.59-5.12,6.54-8.26,8.85-3.15,2.32-6.6,4.05-10.36,5.18-4.02,1.23-8.39,1.84-13.12,1.84h-46.3V28.96h45.12c4.46,0,8.63.55,12.53,1.64,3.89,1.09,7.32,2.69,10.3,4.79,2.89,2.19,5.36,4.72,7.41,7.61,2.05,2.89,3.74,6.43,5.05,10.63.52,2.01.92,4.11,1.18,6.3.26,2.19.39,4.46.39,6.82ZM244.65,57.81h-6.43v32.4h6.43c3.58,0,6.51-.96,8.79-2.89,1.05-.87,1.95-1.92,2.69-3.15.74-1.22,1.38-2.75,1.9-4.59.17-.87.31-1.77.39-2.69.09-.92.13-1.86.13-2.82,0-4.02-.79-7.39-2.36-10.1-.79-1.22-1.75-2.34-2.89-3.34-1.14-1-2.41-1.73-3.8-2.16-1.66-.44-3.28-.66-4.85-.66ZM238.23,156.19h8c3.76,0,6.86-1.05,9.31-3.15,1.31-1.05,2.36-2.34,3.15-3.87.79-1.53,1.4-3.26,1.84-5.18.44-2.1.66-4.24.66-6.43s-.24-4.17-.72-6.23c-.48-2.05-1.12-3.82-1.9-5.31-1.84-3.15-4.24-5.2-7.21-6.17-1.57-.52-3.28-.79-5.11-.79h-8v37.12Z"/>
      <path class="cls-1" d="M302.5,156.19v-85.26h29.51v80.01c0,1.84.44,3.41,1.31,4.72.26.44.72.88,1.38,1.31.66.44,1.38.75,2.16.92.79.18,1.53.26,2.23.26s1.36-.07,1.97-.2c.61-.13,1.27-.28,1.97-.46.79-.18,1.44-.41,1.97-.72.52-.31,1.22-.68,2.1-1.12.35-.17.68-.37.98-.59.31-.22.63-.46.98-.72v-83.42h29.51v114.11h-29.51c0-.87.09-1.75.26-2.62.17-.87.44-1.92.79-3.15.17-.87.48-1.92.92-3.15.44-1.22.87-2.27,1.31-3.15.26-.44.52-.87.79-1.31.17-.44.39-.83.66-1.18l-1.05-.79c-1.57,2.1-3.17,4.07-4.79,5.9-1.62,1.84-3.3,3.37-5.05,4.59-1.84,1.31-3.65,2.43-5.44,3.34-1.79.92-3.74,1.59-5.84,2.03-.96.26-1.95.46-2.95.59-1.01.13-2.03.2-3.08.2-5.51,0-10.28-1.75-14.3-5.25-1.92-1.66-3.52-3.76-4.79-6.3-1.27-2.54-2.25-5.29-2.95-8.26-.7-3.15-1.05-6.6-1.05-10.36Z"/>
      <path class="cls-1" d="M391.69,70.93h29.51c0,.35-.09,1.07-.26,2.16-.18,1.09-.39,1.95-.66,2.56-.35.96-.7,1.93-1.05,2.89-.35.96-.88,2.1-1.57,3.41-.26.52-.52,1.03-.79,1.51-.26.48-.57.98-.92,1.51l1.57,1.31c1.66-2.45,3.23-4.44,4.72-5.97,1.49-1.53,3.15-3.04,4.98-4.53,1.66-1.31,3.5-2.45,5.51-3.41,2.01-.96,3.98-1.66,5.9-2.1.96-.17,1.94-.33,2.95-.46,1-.13,2.03-.2,3.08-.2,2.62,0,5.22.42,7.8,1.25,2.58.83,4.83,2.08,6.75,3.74,3.85,3.5,6.38,8.39,7.61,14.69.26,1.57.48,3.24.66,4.98.17,1.75.26,3.59.26,5.51v85.26h-29.51v-80.01c0-1.05-.09-1.86-.26-2.43-.18-.57-.52-1.33-1.05-2.3-.35-.52-.88-1-1.57-1.44-.7-.44-1.31-.7-1.84-.79-.88-.17-1.66-.26-2.36-.26s-1.36.07-1.97.2c-.61.13-1.27.28-1.97.46-.79.18-1.44.42-1.97.72-.52.31-1.23.68-2.1,1.11-.35.18-.68.37-.98.59-.31.22-.63.46-.98.72v83.42h-29.51v-114.11Z"/>
      <path class="cls-1" d="M510.39,27.64v63.48c0,.96-.07,2.19-.2,3.67-.13,1.49-.29,2.8-.46,3.93-.26,1.31-.59,2.84-.98,4.59-.39,1.75-.81,3.5-1.25,5.25-.26.88-.52,1.79-.79,2.76-.35.96-.66,1.92-.92,2.89h2.1c.44-1.57.72-2.58.85-3.02.13-.44.28-.94.46-1.51.17-.57.61-1.86,1.31-3.87.61-1.66,1.22-3.19,1.84-4.59.61-1.4,1.27-2.89,1.97-4.46.35-.7.7-1.4,1.05-2.1.35-.7.7-1.4,1.05-2.1l11.67-21.64h29.51l-24.66,40.66,26.63,73.45h-29.51l-16.26-44.99-3.41,4.98v40.01h-29.51V27.64h29.51Z"/>
      <path class="cls-1" d="M612.7,186.36c-6.65,0-12.85-1.03-18.63-3.08-5.77-2.05-10.93-4.83-15.48-8.33-4.72-3.5-8.85-7.61-12.4-12.33-3.54-4.72-6.32-10.23-8.33-16.53-1.92-5.77-2.89-11.94-2.89-18.49s.96-12.37,2.89-18.23c1.92-5.86,4.63-11.19,8.13-16,3.67-4.98,7.93-9.23,12.79-12.72,4.85-3.5,10.03-6.17,15.54-8,2.89-.96,5.86-1.7,8.92-2.23,3.06-.52,6.21-.79,9.44-.79,6.21,0,12.26,1.01,18.17,3.02,5.9,2.01,11.21,4.72,15.94,8.13,4.63,3.5,8.77,7.67,12.4,12.53,3.63,4.85,6.4,10.21,8.33,16.07.87,2.89,1.57,5.86,2.1,8.92.52,3.06.79,6.16.79,9.31,0,5.25-.81,10.89-2.43,16.92-1.62,6.03-4.53,11.98-8.72,17.84-3.5,4.9-7.69,9.14-12.59,12.72-4.9,3.59-10.14,6.34-15.74,8.26-2.89.96-5.86,1.7-8.92,2.23-3.06.52-6.17.79-9.31.79ZM612.83,158.16c2.89,0,5.79-.48,8.72-1.44,2.93-.96,5.53-2.4,7.8-4.33,2.89-2.27,5.14-4.74,6.75-7.41,1.62-2.67,2.73-5.14,3.34-7.41.44-1.49.79-3.04,1.05-4.66.26-1.62.39-3.26.39-4.92,0-3.41-.48-6.62-1.44-9.64-.96-3.02-2.27-5.79-3.94-8.33-1.49-2.1-3.37-4.13-5.64-6.1-2.27-1.97-5.03-3.52-8.26-4.66-2.89-.96-5.82-1.44-8.79-1.44-6.3,0-11.85,1.88-16.66,5.64-2.28,1.75-4.33,3.91-6.17,6.49-1.84,2.58-3.19,5.36-4.07,8.33-.44,1.49-.79,3.06-1.05,4.72-.26,1.66-.39,3.32-.39,4.98,0,2.71.39,5.6,1.18,8.66.79,3.06,2.23,6.12,4.33,9.18,1.66,2.45,3.63,4.59,5.9,6.43,2.27,1.84,4.94,3.28,8,4.33,2.89,1.05,5.86,1.57,8.92,1.57Z"/>
    </g>
    <g>
      <path class="cls-1" d="M730.32,75.78v-9.18c0-8.48-2.84-12.72-8.53-12.72-2.62,0-4.68,1.01-6.17,3.02-1.49,2.01-2.23,4.9-2.23,8.66,0,1.14.11,2.36.33,3.67.22,1.31.76,2.71,1.64,4.2.7,1.31,1.75,2.87,3.15,4.66,1.4,1.79,3.15,3.7,5.25,5.71,1.05,1.14,2.23,2.32,3.54,3.54,1.22,1.31,2.62,2.67,4.2,4.07,4.72,4.29,9.07,8.48,13.05,12.59,3.98,4.11,7.23,7.74,9.77,10.89,2.53,3.32,4.54,6.52,6.03,9.57,1.49,3.06,2.58,6.21,3.28,9.44.35,1.66.59,3.37.72,5.11.13,1.75.2,3.59.2,5.51,0,5.25-.57,10.08-1.7,14.49-1.14,4.42-2.89,8.37-5.25,11.87-2.19,3.32-5.05,6.17-8.59,8.53-3.54,2.36-7.41,4.07-11.61,5.12-4.64,1.22-9.62,1.84-14.95,1.84-10.76,0-19.5-2.32-26.23-6.95-6.65-4.54-11.06-11.32-13.25-20.33-1.14-4.37-1.71-9.4-1.71-15.08v-13.77h28.86v13.9c0,5.07,1.05,9.01,3.15,11.8,1.92,2.8,4.9,4.2,8.92,4.2,1.4,0,2.75-.2,4.07-.59s2.4-1.03,3.28-1.9c.79-.79,1.53-1.77,2.23-2.95.7-1.18,1.22-2.64,1.57-4.39.09-.79.17-1.64.26-2.56.09-.92.13-1.86.13-2.82,0-1.84-.13-3.43-.39-4.79-.26-1.35-.79-2.82-1.57-4.39-.88-1.57-2.08-3.19-3.61-4.85-1.53-1.66-3.3-3.5-5.31-5.51-1.14-1.05-2.38-2.19-3.74-3.41-1.36-1.22-2.82-2.53-4.39-3.93-4.9-4.37-9.16-8.37-12.79-12-3.63-3.63-6.71-7.15-9.25-10.56-2.54-3.32-4.53-6.54-5.97-9.64-1.44-3.1-2.51-6.27-3.21-9.51-.35-1.57-.59-3.23-.72-4.98-.13-1.75-.2-3.54-.2-5.38,0-4.81.5-9.29,1.51-13.44,1.01-4.15,2.6-7.8,4.79-10.95,4.28-6.12,10.49-10.23,18.63-12.33,4.02-1.05,8.61-1.57,13.77-1.57,9.79,0,17.84,1.97,24.13,5.9,2.1,1.31,4.33,3.37,6.69,6.17,2.36,2.8,4.2,6.6,5.51,11.41,1.05,3.94,1.57,8.31,1.57,13.12v11.54h-28.86Z"/>
      <path class="cls-1" d="M804.55,27.64v43.29c0,.52-.07,1.2-.2,2.03-.13.83-.42,1.82-.85,2.95-.44,1.23-.79,2.23-1.05,3.02s-.79,1.84-1.57,3.15c-.26.52-.52,1.03-.79,1.51-.26.48-.52.94-.79,1.38l1.57,1.31c1.66-2.45,3.23-4.44,4.72-5.97,1.49-1.53,3.15-3.04,4.98-4.53,1.66-1.31,3.5-2.45,5.51-3.41,2.01-.96,3.98-1.66,5.9-2.1.96-.17,1.94-.33,2.95-.46,1-.13,2.03-.2,3.08-.2,2.62,0,5.22.42,7.8,1.25,2.58.83,4.83,2.08,6.75,3.74,3.85,3.5,6.38,8.39,7.61,14.69.26,1.57.48,3.24.66,4.98.17,1.75.26,3.59.26,5.51v85.26h-29.51v-80.01c0-1.05-.09-1.86-.26-2.43-.18-.57-.52-1.33-1.05-2.3-.35-.52-.88-1-1.57-1.44-.7-.44-1.31-.7-1.84-.79-.88-.17-1.66-.26-2.36-.26s-1.36.07-1.97.2c-.61.13-1.27.28-1.97.46-.79.18-1.44.42-1.97.72-.52.31-1.23.68-2.1,1.11-.35.18-.68.37-.98.59-.31.22-.63.46-.98.72v83.42h-29.51V27.64h29.51Z"/>
      <path class="cls-1" d="M969.82,127.59v9.57h-79.75c.52,2.62,1.38,5.05,2.56,7.28,1.18,2.23,2.51,4.13,4,5.71,1.66,1.75,3.41,3.19,5.25,4.33,1.84,1.14,4.07,2.01,6.69,2.62,1.14.35,2.34.61,3.61.79,1.27.18,2.6.26,4,.26,4.2,0,8.04-.7,11.54-2.1,3.5-1.4,6.34-3.36,8.53-5.9.52-.61,1-1.27,1.44-1.97.44-.7.83-1.4,1.18-2.1h30.04c-1.23,5.42-3.02,10.14-5.38,14.17-2.36,4.02-4.98,7.39-7.87,10.1-3.32,3.32-7.06,6.17-11.21,8.53-4.15,2.36-8.68,4.2-13.58,5.51-2.36.61-4.81,1.09-7.35,1.44-2.54.35-5.11.52-7.74.52-6.73,0-12.83-.98-18.3-2.95-5.47-1.97-10.34-4.61-14.62-7.93-9.36-7.17-15.79-16.74-19.28-28.73-1.75-5.95-2.62-12.33-2.62-19.15s.92-12.85,2.76-18.89c1.84-6.03,4.41-11.41,7.74-16.13,3.41-4.81,7.41-8.92,12-12.33,4.59-3.41,9.64-6.03,15.15-7.87,5.6-1.84,11.41-2.75,17.44-2.75s11.59.98,17.18,2.95c5.6,1.97,10.54,4.7,14.82,8.2,4.46,3.67,8.33,7.87,11.61,12.59,3.28,4.72,5.79,10.06,7.54,16,1.75,5.77,2.62,11.85,2.62,18.23ZM890.6,117.49h50.24c-1.4-4.63-3.76-8.61-7.08-11.94-3.24-3.23-7.04-5.51-11.41-6.82-1.14-.26-2.27-.48-3.41-.66-1.14-.17-2.32-.26-3.54-.26-4.46,0-8.75,1.18-12.85,3.54-1.49.88-3.04,2.1-4.66,3.67-1.62,1.57-3.08,3.54-4.4,5.9-1.23,2.19-2.19,4.37-2.89,6.56Z"/>
      <path class="cls-1" d="M1009.17,185.04h-29.51V27.64h29.51v157.4Z"/>
      <path class="cls-1" d="M1027.53,185.04v-86.57h-10.49v-27.54h20.2v-2.1c-1.75-.7-3.39-1.64-4.92-2.82-1.53-1.18-2.82-2.38-3.87-3.61-2.36-2.71-3.98-5.81-4.85-9.31-.26-.87-.44-1.77-.52-2.69-.09-.92-.13-1.86-.13-2.82,0-3.23.5-5.86,1.51-7.87,1-2.01,2.03-3.59,3.08-4.72,1.49-1.66,3.32-3.02,5.51-4.07,2.19-1.05,4.72-1.88,7.61-2.49,1.4-.26,2.89-.46,4.46-.59,1.57-.13,3.23-.2,4.98-.2h29.91l-1.31,28.2h-19.02c-1.84,0-3.32.39-4.46,1.18-.7.52-1.23,1.05-1.57,1.57-.35.52-.66,1.23-.92,2.1-.26.7-.39,1.57-.39,2.62,0,1.92.44,3.46,1.31,4.59.87,1.31,2.05,2.19,3.54,2.62.61.26,1.44.39,2.49.39h19.02v27.54h-21.64v86.57h-29.51Z"/>
    </g>
  </g>
  <g>
    <path class="cls-1" d="M152.89.24H24.54C11.01.24,0,11.25,0,24.78v188.98h16.19v-15.18h145.05v15.18h16.19V24.78c0-13.53-11.01-24.54-24.54-24.54ZM24.54,16.43h128.35c4.6,0,8.35,3.75,8.35,8.35v66.54H16.19V24.78c0-4.6,3.75-8.35,8.35-8.35ZM16.19,182.39v-74.88h145.05v74.88H16.19Z"/>
    <g>
      <rect class="cls-1" x="25.69" y="117.37" width="16.07" height="54.65"/>
      <rect class="cls-1" x="46.94" y="117.37" width="16.07" height="54.65"/>
      <rect class="cls-1" x="68.19" y="117.37" width="16.07" height="54.65"/>
      <rect class="cls-1" x="89.44" y="117.37" width="16.07" height="54.65"/>
      <rect class="cls-1" x="123.09" y="117.02" width="16.07" height="54.65" transform="translate(89.74 -46.22) rotate(30)"/>
    </g>
    <g>
      <rect class="cls-1" x="25.69" y="27.56" width="16.07" height="54.65"/>
      <g>
        <rect class="cls-1" x="114.42" y="27.56" width="16.07" height="54.65"/>
        <rect class="cls-1" x="135.68" y="27.56" width="16.07" height="54.65"/>
      </g>
      <rect class="cls-1" x="59.53" y="27.21" width="16.07" height="54.65" transform="translate(-18.21 41.08) rotate(-30)"/>
    </g>
  </g>
</svg>