<?xml version="1.0" encoding="UTF-8"?>
<svg id="Layer_1" xmlns="http://www.w3.org/2000/svg" version="1.1" viewBox="0 0 1080 214">
  <!-- Generator: Adobe Illustrator 29.5.0, SVG Export Plug-In . SVG Version: 2.1.0 Build 137)  -->
  <defs>
    <style>
      .st0 {
        fill: #f7f2ec;
      }
    </style>
  </defs>
  <g>
    <g>
      <path class="st0" d="M289.4,66.7c0,10.6-2.4,18.6-7.1,23.9-4.7,5.4-12.3,8.9-22.8,10.7v2.1c4.1.5,7.9,1.4,11.4,2.8,3.5,1.3,6.5,3.2,9.2,5.5,2.6,2.3,4.9,5,6.7,8.3,1.8,3.2,3.1,6.7,3.9,10.2.9,3.9,1.3,8.3,1.3,13.1s-.5,9.8-1.6,14.2c-1.1,4.4-2.7,8.3-4.9,11.7-2.4,3.6-5.1,6.5-8.3,8.9-3.1,2.3-6.6,4.1-10.4,5.2-4,1.2-8.4,1.8-13.1,1.8h-46.3V29h45.1c4.5,0,8.6.5,12.5,1.6,3.9,1.1,7.3,2.7,10.3,4.8,2.9,2.2,5.4,4.7,7.4,7.6,2,2.9,3.7,6.4,5,10.6.5,2,.9,4.1,1.2,6.3.3,2.2.4,4.5.4,6.8h0ZM244.6,57.8h-6.4v32.4h6.4c3.6,0,6.5-1,8.8-2.9,1.1-.9,1.9-1.9,2.7-3.2.7-1.2,1.4-2.8,1.9-4.6.2-.9.3-1.8.4-2.7,0-.9.1-1.9.1-2.8,0-4-.8-7.4-2.4-10.1-.8-1.2-1.8-2.3-2.9-3.3s-2.4-1.7-3.8-2.2c-1.7-.4-3.3-.7-4.9-.7ZM238.2,156.2h8c3.8,0,6.9-1.1,9.3-3.1,1.3-1.1,2.4-2.3,3.2-3.9s1.4-3.3,1.8-5.2c.4-2.1.7-4.2.7-6.4s-.2-4.2-.7-6.2c-.5-2.1-1.1-3.8-1.9-5.3-1.8-3.2-4.2-5.2-7.2-6.2-1.6-.5-3.3-.8-5.1-.8h-8v37.1h0Z"/>
      <path class="st0" d="M302.5,156.2v-85.3h29.5v80c0,1.8.4,3.4,1.3,4.7.3.4.7.9,1.4,1.3.7.4,1.4.8,2.2.9.8.2,1.5.3,2.2.3s1.4,0,2-.2c.6-.1,1.3-.3,2-.5.8-.2,1.4-.4,2-.7.5-.3,1.2-.7,2.1-1.1.4-.2.7-.4,1-.6.3-.2.6-.5,1-.7v-83.4h29.5v114.1h-29.5c0-.9,0-1.8.3-2.6s.4-1.9.8-3.1c.2-.9.5-1.9.9-3.1.4-1.2.9-2.3,1.3-3.1.3-.4.5-.9.8-1.3.2-.4.4-.8.7-1.2l-1-.8c-1.6,2.1-3.2,4.1-4.8,5.9-1.6,1.8-3.3,3.4-5,4.6-1.8,1.3-3.6,2.4-5.4,3.3-1.8.9-3.7,1.6-5.8,2-1,.3-2,.5-3,.6-1,.1-2,.2-3.1.2-5.5,0-10.3-1.8-14.3-5.2-1.9-1.7-3.5-3.8-4.8-6.3-1.3-2.5-2.2-5.3-3-8.3-.7-3.1-1-6.6-1-10.4h0Z"/>
      <path class="st0" d="M391.7,70.9h29.5c0,.3,0,1.1-.3,2.2-.2,1.1-.4,1.9-.7,2.6-.4,1-.7,1.9-1,2.9-.4,1-.9,2.1-1.6,3.4-.3.5-.5,1-.8,1.5-.3.5-.6,1-.9,1.5l1.6,1.3c1.7-2.4,3.2-4.4,4.7-6s3.1-3,5-4.5c1.7-1.3,3.5-2.4,5.5-3.4,2-1,4-1.7,5.9-2.1,1-.2,1.9-.3,3-.5,1-.1,2-.2,3.1-.2,2.6,0,5.2.4,7.8,1.2s4.8,2.1,6.8,3.7c3.9,3.5,6.4,8.4,7.6,14.7.3,1.6.5,3.2.7,5,.2,1.8.3,3.6.3,5.5v85.3h-29.5v-80c0-1.1,0-1.9-.3-2.4-.2-.6-.5-1.3-1-2.3-.4-.5-.9-1-1.6-1.4-.7-.4-1.3-.7-1.8-.8-.9-.2-1.7-.3-2.4-.3s-1.4,0-2,.2c-.6.1-1.3.3-2,.5-.8.2-1.4.4-2,.7-.5.3-1.2.7-2.1,1.1-.4.2-.7.4-1,.6-.3.2-.6.5-1,.7v83.4h-29.5v-114.1h0Z"/>
      <path class="st0" d="M510.4,27.6v63.5c0,1,0,2.2-.2,3.7-.1,1.5-.3,2.8-.5,3.9-.3,1.3-.6,2.8-1,4.6-.4,1.8-.8,3.5-1.2,5.2-.3.9-.5,1.8-.8,2.8-.4,1-.7,1.9-.9,2.9h2.1c.4-1.6.7-2.6.9-3,.1-.4.3-.9.5-1.5.2-.6.6-1.9,1.3-3.9.6-1.7,1.2-3.2,1.8-4.6.6-1.4,1.3-2.9,2-4.5.3-.7.7-1.4,1-2.1s.7-1.4,1-2.1l11.7-21.6h29.5l-24.7,40.7,26.6,73.4h-29.5l-16.3-45-3.4,5v40h-29.5V27.6h29.5Z"/>
      <path class="st0" d="M612.7,186.4c-6.7,0-12.8-1-18.6-3.1-5.8-2.1-10.9-4.8-15.5-8.3-4.7-3.5-8.8-7.6-12.4-12.3-3.5-4.7-6.3-10.2-8.3-16.5-1.9-5.8-2.9-11.9-2.9-18.5s1-12.4,2.9-18.2c1.9-5.9,4.6-11.2,8.1-16,3.7-5,7.9-9.2,12.8-12.7,4.8-3.5,10-6.2,15.5-8,2.9-1,5.9-1.7,8.9-2.2,3.1-.5,6.2-.8,9.4-.8,6.2,0,12.3,1,18.2,3,5.9,2,11.2,4.7,15.9,8.1,4.6,3.5,8.8,7.7,12.4,12.5,3.6,4.8,6.4,10.2,8.3,16.1.9,2.9,1.6,5.9,2.1,8.9.5,3.1.8,6.2.8,9.3,0,5.3-.8,10.9-2.4,16.9s-4.5,12-8.7,17.8c-3.5,4.9-7.7,9.1-12.6,12.7-4.9,3.6-10.1,6.3-15.7,8.3-2.9,1-5.9,1.7-8.9,2.2-3.1.5-6.2.8-9.3.8h0ZM612.8,158.2c2.9,0,5.8-.5,8.7-1.4s5.5-2.4,7.8-4.3c2.9-2.3,5.1-4.7,6.8-7.4,1.6-2.7,2.7-5.1,3.3-7.4.4-1.5.8-3,1-4.7.3-1.6.4-3.3.4-4.9,0-3.4-.5-6.6-1.4-9.6s-2.3-5.8-3.9-8.3c-1.5-2.1-3.4-4.1-5.6-6.1s-5-3.5-8.3-4.7c-2.9-1-5.8-1.4-8.8-1.4-6.3,0-11.8,1.9-16.7,5.6-2.3,1.8-4.3,3.9-6.2,6.5-1.8,2.6-3.2,5.4-4.1,8.3-.4,1.5-.8,3.1-1,4.7s-.4,3.3-.4,5c0,2.7.4,5.6,1.2,8.7s2.2,6.1,4.3,9.2c1.7,2.4,3.6,4.6,5.9,6.4s4.9,3.3,8,4.3c2.9,1.1,5.9,1.6,8.9,1.6h0Z"/>
    </g>
    <g>
      <path class="st0" d="M730.3,75.8v-9.2c0-8.5-2.8-12.7-8.5-12.7s-4.7,1-6.2,3c-1.5,2-2.2,4.9-2.2,8.7s.1,2.4.3,3.7c.2,1.3.8,2.7,1.6,4.2.7,1.3,1.8,2.9,3.2,4.7s3.2,3.7,5.2,5.7c1,1.1,2.2,2.3,3.5,3.5,1.2,1.3,2.6,2.7,4.2,4.1,4.7,4.3,9.1,8.5,13,12.6s7.2,7.7,9.8,10.9c2.5,3.3,4.5,6.5,6,9.6,1.5,3.1,2.6,6.2,3.3,9.4.3,1.7.6,3.4.7,5.1.1,1.8.2,3.6.2,5.5,0,5.2-.6,10.1-1.7,14.5-1.1,4.4-2.9,8.4-5.2,11.9-2.2,3.3-5,6.2-8.6,8.5-3.5,2.4-7.4,4.1-11.6,5.1-4.6,1.2-9.6,1.8-15,1.8-10.8,0-19.5-2.3-26.2-6.9-6.7-4.5-11.1-11.3-13.2-20.3-1.1-4.4-1.7-9.4-1.7-15.1v-13.8h28.9v13.9c0,5.1,1,9,3.2,11.8,1.9,2.8,4.9,4.2,8.9,4.2s2.8-.2,4.1-.6,2.4-1,3.3-1.9c.8-.8,1.5-1.8,2.2-2.9.7-1.2,1.2-2.6,1.6-4.4,0-.8.2-1.6.3-2.6s.1-1.9.1-2.8c0-1.8-.1-3.4-.4-4.8-.3-1.4-.8-2.8-1.6-4.4-.9-1.6-2.1-3.2-3.6-4.9-1.5-1.7-3.3-3.5-5.3-5.5-1.1-1.1-2.4-2.2-3.7-3.4s-2.8-2.5-4.4-3.9c-4.9-4.4-9.2-8.4-12.8-12s-6.7-7.2-9.2-10.6c-2.5-3.3-4.5-6.5-6-9.6-1.4-3.1-2.5-6.3-3.2-9.5-.3-1.6-.6-3.2-.7-5-.1-1.8-.2-3.5-.2-5.4,0-4.8.5-9.3,1.5-13.4,1-4.2,2.6-7.8,4.8-11,4.3-6.1,10.5-10.2,18.6-12.3,4-1,8.6-1.6,13.8-1.6,9.8,0,17.8,2,24.1,5.9,2.1,1.3,4.3,3.4,6.7,6.2s4.2,6.6,5.5,11.4c1,3.9,1.6,8.3,1.6,13.1v11.5h-28.9Z"/>
      <path class="st0" d="M804.5,27.6v43.3c0,.5,0,1.2-.2,2s-.4,1.8-.8,2.9c-.4,1.2-.8,2.2-1,3s-.8,1.8-1.6,3.2c-.3.5-.5,1-.8,1.5-.3.5-.5.9-.8,1.4l1.6,1.3c1.7-2.4,3.2-4.4,4.7-6s3.2-3,5-4.5c1.7-1.3,3.5-2.4,5.5-3.4,2-1,4-1.7,5.9-2.1,1-.2,1.9-.3,3-.5,1-.1,2-.2,3.1-.2,2.6,0,5.2.4,7.8,1.2s4.8,2.1,6.8,3.7c3.8,3.5,6.4,8.4,7.6,14.7.3,1.6.5,3.2.7,5,.2,1.8.3,3.6.3,5.5v85.3h-29.5v-80c0-1.1,0-1.9-.3-2.4-.2-.6-.5-1.3-1-2.3-.3-.5-.9-1-1.6-1.4-.7-.4-1.3-.7-1.8-.8-.9-.2-1.7-.3-2.4-.3s-1.4,0-2,.2-1.3.3-2,.5c-.8.2-1.4.4-2,.7-.5.3-1.2.7-2.1,1.1-.3.2-.7.4-1,.6-.3.2-.6.5-1,.7v83.4h-29.5V27.6h29.5Z"/>
      <path class="st0" d="M969.8,127.6v9.6h-79.8c.5,2.6,1.4,5.1,2.6,7.3s2.5,4.1,4,5.7c1.7,1.8,3.4,3.2,5.2,4.3s4.1,2,6.7,2.6c1.1.4,2.3.6,3.6.8,1.3.2,2.6.3,4,.3,4.2,0,8-.7,11.5-2.1,3.5-1.4,6.3-3.4,8.5-5.9.5-.6,1-1.3,1.4-2s.8-1.4,1.2-2.1h30c-1.2,5.4-3,10.1-5.4,14.2-2.4,4-5,7.4-7.9,10.1-3.3,3.3-7.1,6.2-11.2,8.5s-8.7,4.2-13.6,5.5c-2.4.6-4.8,1.1-7.3,1.4s-5.1.5-7.7.5c-6.7,0-12.8-1-18.3-2.9s-10.3-4.6-14.6-7.9c-9.4-7.2-15.8-16.7-19.3-28.7-1.8-5.9-2.6-12.3-2.6-19.2s.9-12.8,2.8-18.9c1.8-6,4.4-11.4,7.7-16.1,3.4-4.8,7.4-8.9,12-12.3s9.6-6,15.2-7.9c5.6-1.8,11.4-2.8,17.4-2.8s11.6,1,17.2,2.9c5.6,2,10.5,4.7,14.8,8.2,4.5,3.7,8.3,7.9,11.6,12.6,3.3,4.7,5.8,10.1,7.5,16,1.8,5.8,2.6,11.8,2.6,18.2h0ZM890.6,117.5h50.2c-1.4-4.6-3.8-8.6-7.1-11.9-3.2-3.2-7-5.5-11.4-6.8-1.1-.3-2.3-.5-3.4-.7-1.1-.2-2.3-.3-3.5-.3-4.5,0-8.8,1.2-12.8,3.5-1.5.9-3,2.1-4.7,3.7s-3.1,3.5-4.4,5.9c-1.2,2.2-2.2,4.4-2.9,6.6h0Z"/>
      <path class="st0" d="M1009.2,185h-29.5V27.6h29.5v157.4Z"/>
      <path class="st0" d="M1027.5,185v-86.6h-10.5v-27.5h20.2v-2.1c-1.8-.7-3.4-1.6-4.9-2.8s-2.8-2.4-3.9-3.6c-2.4-2.7-4-5.8-4.8-9.3-.3-.9-.4-1.8-.5-2.7,0-.9-.1-1.9-.1-2.8,0-3.2.5-5.9,1.5-7.9,1-2,2-3.6,3.1-4.7,1.5-1.7,3.3-3,5.5-4.1,2.2-1,4.7-1.9,7.6-2.5,1.4-.3,2.9-.5,4.5-.6,1.6-.1,3.2-.2,5-.2h29.9l-1.3,28.2h-19c-1.8,0-3.3.4-4.5,1.2-.7.5-1.2,1-1.6,1.6-.3.5-.7,1.2-.9,2.1-.3.7-.4,1.6-.4,2.6,0,1.9.4,3.5,1.3,4.6.9,1.3,2.1,2.2,3.5,2.6.6.3,1.4.4,2.5.4h19v27.5h-21.6v86.6h-29.5Z"/>
    </g>
  </g>
  <g>
    <path class="st0" d="M152.9.2H24.5C11,.2,0,11.2,0,24.8v189h16.2v-15.2h145.1v15.2h16.2V24.8c0-13.5-11-24.5-24.5-24.5h0ZM24.5,16.4h128.4c4.6,0,8.4,3.8,8.4,8.4v66.5H16.2V24.8c0-4.6,3.8-8.4,8.4-8.4ZM16.2,182.4v-74.9h145.1v74.9H16.2Z"/>
    <g>
      <rect class="st0" x="25.7" y="117.4" width="16.1" height="54.7"/>
      <rect class="st0" x="46.9" y="117.4" width="16.1" height="54.7"/>
      <rect class="st0" x="68.2" y="117.4" width="16.1" height="54.7"/>
      <rect class="st0" x="89.4" y="117.4" width="16.1" height="54.7"/>
      <rect class="st0" x="103.8" y="136.3" width="54.7" height="16.1" transform="translate(-59.4 185.7) rotate(-60)"/>
    </g>
    <g>
      <rect class="st0" x="25.7" y="27.6" width="16.1" height="54.6"/>
      <g>
        <rect class="st0" x="114.4" y="27.6" width="16.1" height="54.6"/>
        <rect class="st0" x="135.7" y="27.6" width="16.1" height="54.6"/>
      </g>
      <rect class="st0" x="59.5" y="27.2" width="16.1" height="54.7" transform="translate(-18.2 41.1) rotate(-30)"/>
    </g>
  </g>
</svg>